<?xml version="1.0" encoding="UTF-8" standalone="no"?>
<!-- Generator: Adobe Illustrator 17.0.1, SVG Export Plug-In . SVG Version: 6.00 Build 0)  -->

<svg
   xmlns:dc="http://purl.org/dc/elements/1.1/"
   xmlns:cc="http://creativecommons.org/ns#"
   xmlns:rdf="http://www.w3.org/1999/02/22-rdf-syntax-ns#"
   xmlns:svg="http://www.w3.org/2000/svg"
   xmlns="http://www.w3.org/2000/svg"
   xmlns:xlink="http://www.w3.org/1999/xlink"
   xmlns:sodipodi="http://sodipodi.sourceforge.net/DTD/sodipodi-0.dtd"
   xmlns:inkscape="http://www.inkscape.org/namespaces/inkscape"
   version="1.1"
   x="0px"
   y="0px"
   width="86px"
   height="86px"
   viewBox="0 0 86 86"
   enable-background="new 0 0 86 86"
   xml:space="preserve"
   id="svg21"
   sodipodi:docname="harbour-taskswitcher-user.svg"
   inkscape:version="0.92.4 (5da689c313, 2019-01-14)"
   inkscape:export-filename="/home/piggz/projects/taskswitcher/user-daemon/icons/108x108/harbour-taskswitcher-user.png"
   inkscape:export-xdpi="96"
   inkscape:export-ydpi="96"><metadata
   id="metadata27"><rdf:RDF><cc:Work
       rdf:about=""><dc:format>image/svg+xml</dc:format><dc:type
         rdf:resource="http://purl.org/dc/dcmitype/StillImage" /><dc:title></dc:title></cc:Work></rdf:RDF></metadata><defs
   id="defs25"><linearGradient
   id="linearGradient6715"
   y2="609.51001"
   gradientUnits="userSpaceOnUse"
   x2="302.85999"
   gradientTransform="matrix(2.7744,0,0,1.9697,-1892.2,-872.89)"
   y1="366.64999"
   x1="302.85999"
   inkscape:collect="always"><stop
     id="stop5050"
     style="stop-color:black;stop-opacity:0"
     offset="0" /><stop
     id="stop5056"
     style="stop-color:black"
     offset=".5" /><stop
     id="stop5052"
     style="stop-color:black;stop-opacity:0"
     offset="1" /></linearGradient><radialGradient
   id="radialGradient6717"
   xlink:href="#linearGradient5060"
   gradientUnits="userSpaceOnUse"
   cy="486.64999"
   cx="605.71002"
   gradientTransform="matrix(2.7744,0,0,1.9697,-1891.6,-872.89)"
   r="117.14"
   inkscape:collect="always" /><linearGradient
   id="linearGradient5060"
   inkscape:collect="always"><stop
     id="stop5062"
     style="stop-color:black"
     offset="0" /><stop
     id="stop5064"
     style="stop-color:black;stop-opacity:0"
     offset="1" /></linearGradient><radialGradient
   id="radialGradient6719"
   xlink:href="#linearGradient5060"
   gradientUnits="userSpaceOnUse"
   cy="486.64999"
   cx="605.71002"
   gradientTransform="matrix(-2.7744,0,0,1.9697,112.76,-872.89)"
   r="117.14"
   inkscape:collect="always" /><radialGradient
   id="radialGradient4716"
   gradientUnits="userSpaceOnUse"
   cy="29.5"
   cx="24.5"
   gradientTransform="matrix(2.1541,0,0,2.1541,-76.776,-33.597)"
   r="15.095"
   inkscape:collect="always"><stop
     id="stop4712"
     style="stop-color:#f2f4f1"
     offset="0" /><stop
     id="stop4714"
     style="stop-color:#d3d7cf"
     offset="1" /></radialGradient><linearGradient
   id="linearGradient4734"
   y2="34.095001"
   gradientUnits="userSpaceOnUse"
   x2="24.094999"
   gradientTransform="matrix(0.99368,0,0,0.99368,-47.943,1.0379)"
   y1="12.595"
   x1="24.094999"
   inkscape:collect="always"><stop
     id="stop4730"
     style="stop-color:#eeeeec"
     offset="0" /><stop
     id="stop4732"
     style="stop-color:#ffffff"
     offset="1" /></linearGradient><linearGradient
   id="linearGradient4760"
   y2="8.1619997"
   xlink:href="#linearGradient4750"
   gradientUnits="userSpaceOnUse"
   x2="39.438"
   y1="6.7174001"
   x1="38.292999"
   inkscape:collect="always" /><linearGradient
   id="linearGradient4750"><stop
     id="stop4752"
     style="stop-color:#ffffff;stop-opacity:0"
     offset="0" /><stop
     id="stop4758"
     style="stop-color:#ffffff"
     offset=".5" /><stop
     id="stop4754"
     style="stop-color:#ffffff;stop-opacity:0"
     offset="1" /></linearGradient><linearGradient
   id="linearGradient4756"
   y2="6.7844"
   xlink:href="#linearGradient4750"
   gradientUnits="userSpaceOnUse"
   x2="9.0675001"
   y1="7.9334002"
   x1="8.1169004"
   inkscape:collect="always" /><linearGradient
   inkscape:collect="always"
   xlink:href="#linearGradient6715"
   id="linearGradient903"
   gradientUnits="userSpaceOnUse"
   gradientTransform="matrix(2.7744,0,0,1.9697,-1892.2,-872.89)"
   x1="302.85999"
   y1="366.64999"
   x2="302.85999"
   y2="609.51001" /><radialGradient
   inkscape:collect="always"
   xlink:href="#linearGradient5060"
   id="radialGradient905"
   gradientUnits="userSpaceOnUse"
   gradientTransform="matrix(2.7744,0,0,1.9697,-1891.6,-872.89)"
   cx="605.71002"
   cy="486.64999"
   r="117.14" /><radialGradient
   inkscape:collect="always"
   xlink:href="#linearGradient5060"
   id="radialGradient907"
   gradientUnits="userSpaceOnUse"
   gradientTransform="matrix(-2.7744,0,0,1.9697,112.76,-872.89)"
   cx="605.71002"
   cy="486.64999"
   r="117.14" /><radialGradient
   inkscape:collect="always"
   xlink:href="#radialGradient4716"
   id="radialGradient909"
   gradientUnits="userSpaceOnUse"
   gradientTransform="matrix(2.1541,0,0,2.1541,-76.776,-33.597)"
   cx="24.5"
   cy="29.5"
   r="15.095" /><linearGradient
   inkscape:collect="always"
   xlink:href="#linearGradient4734"
   id="linearGradient911"
   gradientUnits="userSpaceOnUse"
   gradientTransform="matrix(0.99368,0,0,0.99368,-47.943,1.0379)"
   x1="24.094999"
   y1="12.595"
   x2="24.094999"
   y2="34.095001" /><radialGradient
   r="15.095"
   cy="29.5"
   cx="24.5"
   gradientTransform="matrix(2.1541,0,0,2.1541,-76.776,-33.597)"
   gradientUnits="userSpaceOnUse"
   id="radialGradient1049"
   xlink:href="#radialGradient4716"
   inkscape:collect="always" /><linearGradient
   inkscape:collect="always"
   xlink:href="#linearGradient6715"
   id="linearGradient997"
   gradientUnits="userSpaceOnUse"
   gradientTransform="matrix(2.7744,0,0,1.9697,-1892.2,-872.89)"
   x1="302.85999"
   y1="366.64999"
   x2="302.85999"
   y2="609.51001" /><linearGradient
   inkscape:collect="always"
   xlink:href="#linearGradient4734"
   id="linearGradient999"
   gradientUnits="userSpaceOnUse"
   gradientTransform="matrix(0.99368,0,0,0.99368,-47.943,1.0379)"
   x1="24.094999"
   y1="12.595"
   x2="24.094999"
   y2="34.095001" /><linearGradient
   inkscape:collect="always"
   xlink:href="#linearGradient4750"
   id="linearGradient1001"
   gradientUnits="userSpaceOnUse"
   x1="38.292999"
   y1="6.7174001"
   x2="39.438"
   y2="8.1619997" /><linearGradient
   inkscape:collect="always"
   xlink:href="#linearGradient4750"
   id="linearGradient1003"
   gradientUnits="userSpaceOnUse"
   x1="8.1169004"
   y1="7.9334002"
   x2="9.0675001"
   y2="6.7844" />
	<linearGradient
   y2="0.71689999"
   x2="85.283096"
   y1="85.283096"
   x1="0.71689999"
   gradientUnits="userSpaceOnUse"
   id="SVGID_1_">
		<stop
   id="stop3"
   style="stop-color:#EB424A"
   offset="0" />
		<stop
   id="stop5"
   style="stop-color:#FF7500"
   offset="1" />
	</linearGradient>
	
	
	
	
	
</defs><sodipodi:namedview
   pagecolor="#ffffff"
   bordercolor="#666666"
   borderopacity="1"
   objecttolerance="10"
   gridtolerance="10"
   guidetolerance="10"
   inkscape:pageopacity="0"
   inkscape:pageshadow="2"
   inkscape:window-width="1876"
   inkscape:window-height="1055"
   id="namedview23"
   showgrid="false"
   inkscape:zoom="7.7617302"
   inkscape:cx="34.041042"
   inkscape:cy="47.511256"
   inkscape:window-x="44"
   inkscape:window-y="0"
   inkscape:window-maximized="1"
   inkscape:current-layer="svg21" />
<g
   id="Layer_2"
   display="none">
</g>
<path
   style="fill:url(#SVGID_1_)"
   inkscape:connector-curvature="0"
   id="path8"
   d="M 84.277,0.3 H 43 C 19.417,0.3 0.3,19.418 0.3,43 v 41.277 c 0,0.786 0.637,1.423 1.423,1.423 H 43 C 66.583,85.7 85.7,66.582 85.7,43 V 1.723 C 85.7,0.937 85.063,0.3 84.277,0.3 Z" /><g
   id="g12">
		<path
   style="fill:#fcba03"
   inkscape:connector-curvature="0"
   id="path10"
   d="m 75.022,12.586 c 0,-1.611 0,-1.611 -1.779,-1.611 0,0 -29.768,0 -30.244,0 -17.686,0 -32.024,12.983 -32.024,28.999 0,16.016 10.977,15.862 32.024,15.862 17.844,0 32.023,-12.983 32.023,-28.999 0,-0.432 0,-14.251 0,-14.251 z" />
	</g><path
   style="fill:#fc8272"
   inkscape:connector-curvature="0"
   id="path16"
   d="m 0.3,54.763 c 7.055,-1.559 10.675,-5.385 10.675,-14.788 0,-6.308 -2.132,-12.141 -5.74,-16.9 C 2.089,29.024 0.3,35.802 0.3,43 Z" /><path
   style="opacity:0.6;fill:#d1a5ff"
   inkscape:connector-curvature="0"
   id="path18"
   d="M 7.824,57.652 C 9.836,53.553 10.971,48.949 10.975,44.083 10.973,42.764 10.88,41.466 10.719,40.19 H 7.104 c -2.319,0 -4.578,0.259 -6.752,0.744 C 0.319,41.619 0.3,42.307 0.3,43 v 24.415 c 3.113,-2.709 5.688,-6.021 7.524,-9.763 z" />
<g
   transform="translate(9.666629,4.1092942)"
   id="g869"><g
     transform="matrix(0.021713,0,0,0.024526,43.187,37.955)"
     id="g6707"><rect
       x="-1559.3"
       y="-150.7"
       width="1339.6"
       height="478.35999"
       style="color:#000000;opacity:0.40206;fill:url(#linearGradient997)"
       id="rect6709" /><path
       inkscape:connector-curvature="0"
       d="m -219.62,-150.68 v 478.33 c 142.88,0.9 345.4,-107.17 345.4,-239.2 0,-132.02 -159.44,-239.13 -345.4,-239.13 z"
       style="color:#000000;opacity:0.40206;fill:url(#radialGradient6717)"
       sodipodi:nodetypes="cccc"
       id="path6711" /><path
       inkscape:connector-curvature="0"
       d="m -1559.3,-150.68 v 478.33 c -142.8,0.9 -345.4,-107.17 -345.4,-239.2 0,-132.02 159.5,-239.13 345.4,-239.13 z"
       style="color:#000000;opacity:0.40206;fill:url(#radialGradient6719)"
       sodipodi:nodetypes="cccc"
       id="path6713" /></g><rect
     x="5.5075002"
     y="4.5201001"
     width="37.005001"
     height="37.959999"
     ry="4.6513"
     rx="4.5342999"
     inkscape:r_cx="true"
     inkscape:r_cy="true"
     style="color:#000000;display:block;fill:#d3d7cf;stroke:#888a85"
     id="rect2960" /><rect
     x="-38.502998"
     y="7.4967999"
     transform="scale(-1,1)"
     width="29.006001"
     height="29.006001"
     ry="3.5541999"
     rx="3.5541999"
     inkscape:r_cx="true"
     inkscape:r_cy="true"
     style="color:#000000;display:block;fill:url(#radialGradient1049);stroke:url(#linearGradient999)"
     id="rect3835" /><rect
     x="6.4573002"
     y="5.4944"
     width="35.105"
     height="36.011002"
     ry="3.5374999"
     rx="3.5374999"
     inkscape:r_cx="true"
     inkscape:r_cy="true"
     style="color:#000000;display:block;opacity:0.48888999;fill:none;stroke:#ffffff"
     id="rect4740" /><path
     inkscape:connector-curvature="0"
     d="M 5.9375,38.5 C 6,39.625 7.25,41.438 8.75,41.812 l 2.188,-5.5 L 10,35.625 Z"
     sodipodi:nodetypes="ccccc"
     inkscape:r_cx="true"
     inkscape:r_cy="true"
     style="color:#000000;display:block;opacity:0.48888999;fill:#ffffff"
     id="path4742" /><path
     inkscape:connector-curvature="0"
     inkscape:r_cx="true"
     sodipodi:nodetypes="ccccc"
     d="M 42.062,38.5 C 42,39.625 40.75,41.438 39.25,41.812 L 37.062,36.312 38,35.625 Z"
     inkscape:r_cy="true"
     style="color:#000000;display:block;opacity:0.48888999;fill:#ffffff"
     id="path4744" /><path
     inkscape:connector-curvature="0"
     d="M 41.5,7.125 C 41.062,6.5625 40.312,5.5 39.312,5.1875 l -1.937,2.5625 0.937,1 z"
     sodipodi:nodetypes="ccccc"
     inkscape:r_cx="true"
     inkscape:r_cy="true"
     style="color:#000000;display:block;fill:url(#linearGradient1001)"
     id="path4746" /><path
     inkscape:connector-curvature="0"
     inkscape:r_cx="true"
     sodipodi:nodetypes="ccccc"
     d="M 6.4375,7.125 C 6.875,6.5625 7.5625,5.5625 8.5625,5.25 l 1.8755,2.6875 -0.688,1 z"
     inkscape:r_cy="true"
     style="color:#000000;display:block;fill:url(#linearGradient1003)"
     id="path4748" /><flowRoot
     transform="translate(24.504726,4.2876498)"
     style="font-style:normal;font-variant:normal;font-weight:normal;font-stretch:normal;font-size:8px;line-height:0px;font-family:Prompt;-inkscape-font-specification:Prompt;letter-spacing:0.34px;word-spacing:-1.21000051px;fill:#000000;fill-opacity:1;stroke:none;stroke-width:1px;stroke-linecap:butt;stroke-linejoin:miter;stroke-opacity:1"
     id="flowRoot846"
     xml:space="preserve"><flowRegion
       id="flowRegion848"><rect
         y="21.6875"
         x="-12.5625"
         height="23.375"
         width="39.25"
         id="rect850" /></flowRegion><flowPara
       style="font-style:normal;font-variant:normal;font-weight:bold;font-stretch:normal;font-size:16px;font-family:'Open Sans';-inkscape-font-specification:'Open Sans Bold'"
       id="flowPara852">alt</flowPara></flowRoot></g><g
   id="g901"
   transform="translate(32.229129,30.421792)"><g
     id="g877"
     transform="matrix(0.021713,0,0,0.024526,43.187,37.955)"><rect
       id="rect871"
       style="color:#000000;opacity:0.40206;fill:url(#linearGradient903)"
       height="478.35999"
       width="1339.6"
       y="-150.7"
       x="-1559.3" /><path
       id="path873"
       sodipodi:nodetypes="cccc"
       style="color:#000000;opacity:0.40206;fill:url(#radialGradient905)"
       d="m -219.62,-150.68 v 478.33 c 142.88,0.9 345.4,-107.17 345.4,-239.2 0,-132.02 -159.44,-239.13 -345.4,-239.13 z"
       inkscape:connector-curvature="0" /><path
       id="path875"
       sodipodi:nodetypes="cccc"
       style="color:#000000;opacity:0.40206;fill:url(#radialGradient907)"
       d="m -1559.3,-150.68 v 478.33 c -142.8,0.9 -345.4,-107.17 -345.4,-239.2 0,-132.02 159.5,-239.13 345.4,-239.13 z"
       inkscape:connector-curvature="0" /></g><rect
     id="rect879"
     style="color:#000000;display:block;fill:#d3d7cf;stroke:#888a85"
     inkscape:r_cy="true"
     inkscape:r_cx="true"
     rx="4.5342999"
     ry="4.6513"
     height="37.959999"
     width="37.005001"
     y="4.5201001"
     x="5.5075002" /><rect
     id="rect881"
     style="color:#000000;display:block;fill:url(#radialGradient909);stroke:url(#linearGradient911)"
     inkscape:r_cy="true"
     inkscape:r_cx="true"
     rx="3.5541999"
     ry="3.5541999"
     height="29.006001"
     width="29.006001"
     transform="scale(-1,1)"
     y="7.4967999"
     x="-38.502998" /><rect
     id="rect883"
     style="color:#000000;display:block;opacity:0.48888999;fill:none;stroke:#ffffff"
     inkscape:r_cy="true"
     inkscape:r_cx="true"
     rx="3.5374999"
     ry="3.5374999"
     height="36.011002"
     width="35.105"
     y="5.4944"
     x="6.4573002" /><path
     id="path885"
     style="color:#000000;display:block;opacity:0.48888999;fill:#ffffff"
     inkscape:r_cy="true"
     inkscape:r_cx="true"
     sodipodi:nodetypes="ccccc"
     d="M 5.9375,38.5 C 6,39.625 7.25,41.438 8.75,41.812 l 2.188,-5.5 L 10,35.625 Z"
     inkscape:connector-curvature="0" /><path
     id="path887"
     style="color:#000000;display:block;opacity:0.48888999;fill:#ffffff"
     inkscape:r_cy="true"
     d="M 42.062,38.5 C 42,39.625 40.75,41.438 39.25,41.812 L 37.062,36.312 38,35.625 Z"
     sodipodi:nodetypes="ccccc"
     inkscape:r_cx="true"
     inkscape:connector-curvature="0" /><path
     id="path889"
     style="color:#000000;display:block;fill:url(#linearGradient4760)"
     inkscape:r_cy="true"
     inkscape:r_cx="true"
     sodipodi:nodetypes="ccccc"
     d="M 41.5,7.125 C 41.062,6.5625 40.312,5.5 39.312,5.1875 l -1.937,2.5625 0.937,1 z"
     inkscape:connector-curvature="0" /><path
     id="path891"
     style="color:#000000;display:block;fill:url(#linearGradient4756)"
     inkscape:r_cy="true"
     d="M 6.4375,7.125 C 6.875,6.5625 7.5625,5.5625 8.5625,5.25 l 1.8755,2.6875 -0.688,1 z"
     sodipodi:nodetypes="ccccc"
     inkscape:r_cx="true"
     inkscape:connector-curvature="0" /><flowRoot
     xml:space="preserve"
     id="flowRoot899"
     style="font-style:normal;font-variant:normal;font-weight:normal;font-stretch:normal;font-size:8px;line-height:0px;font-family:Prompt;-inkscape-font-specification:Prompt;letter-spacing:0.34px;word-spacing:-1.21000051px;fill:#000000;fill-opacity:1;stroke:none;stroke-width:1px;stroke-linecap:butt;stroke-linejoin:miter;stroke-opacity:1"
     transform="translate(22.504726,4.2876498)"><flowRegion
       id="flowRegion895"><rect
         id="rect893"
         width="39.25"
         height="23.375"
         x="-12.5625"
         y="21.6875" /></flowRegion><flowPara
       id="flowPara897"
       style="font-style:normal;font-variant:normal;font-weight:bold;font-stretch:normal;font-size:16px;font-family:'Open Sans';-inkscape-font-specification:'Open Sans Bold'">tab</flowPara></flowRoot></g><path
   style="opacity:0.7;fill:#89e700"
   inkscape:connector-curvature="0"
   id="path14"
   d="M 44.176,57.633 C 38.912,47.317 27.824,40.19 15.026,40.19 h -3.783 c -0.169,1.277 -0.266,2.574 -0.268,3.893 0.004,4.865 1.192,9.469 3.298,13.569 5.278,10.279 16.343,17.373 29.113,17.373 h 4.052 V 71.156 C 47.437,66.309 46.264,61.721 44.176,57.633 Z" /></svg>